<?xml version="1.0" encoding="UTF-8"?>
<svg width="21px" height="20px" viewBox="0 0 21 20" version="1.1" xmlns="http://www.w3.org/2000/svg" xmlns:xlink="http://www.w3.org/1999/xlink">
    <!-- Generator: Sketch 52.4 (67378) - http://www.bohemiancoding.com/sketch -->
    <title>exchange</title>
    <desc>Created with Sketch.</desc>
    <g id="Page-1" stroke="none" stroke-width="1" fill="none" fill-rule="evenodd">
        <g id="A4" transform="translate(-448.000000, -61.000000)" fill="#FFFFFF">
            <g id="exchange" transform="translate(448.000000, 61.000000)">
                <path d="M8.98157803,5.2047593 L16.2576678,5.2047593 L16.2576678,7.57700431 L15.6449075,6.96008093 L14.7608774,7.8605986 L16.885977,10 L19,7.85928644 L18.1133367,6.96139308 L17.5116111,7.57069751 L17.5116111,3.93493416 L8.98157803,3.93493416 C8.67544867,1.71460257 6.78822217,0 4.51264943,0 C2.0243661,-2.78198385e-15 0,2.05004804 0,4.56984673 C0,7.08964542 2.0243661,9.13965114 4.51264943,9.13965114 C6.78822217,9.13965114 8.67544867,7.4250909 8.98157803,5.2047593 Z M1.25394332,4.56984673 C1.25394332,2.75022963 2.71579045,1.26982515 4.51264943,1.26982515 C6.30950841,1.26982515 7.77139733,2.75022963 7.77139733,4.56984673 C7.77139733,6.38946384 6.30950841,7.86982599 4.51264943,7.86982599 C2.71579045,7.86982599 1.25394332,6.38946384 1.25394332,4.56984673 Z" id="Shape" fill-rule="nonzero"></path>
                <path d="M16.4873187,10.8603912 C14.2117928,10.8603912 12.3245286,12.5749514 12.0183999,14.795283 L4.74228442,14.795283 L4.74228442,12.423038 L5.35504337,13.0399191 L6.23911327,12.1394014 L4.11406019,10 L2,12.1406712 L2.88666137,13.0386492 L3.48838565,12.4293025 L3.48838565,16.0650658 L12.0183999,16.0650658 C12.3245286,18.2853974 14.211751,20 16.4873187,20 C18.9755966,20 21,17.949952 21,15.4301533 C21,12.9103546 18.9755966,10.8603912 16.4873187,10.8603912 Z M16.4873187,18.7301749 C14.6904637,18.7301749 13.228578,17.2497704 13.228578,15.4301533 C13.228578,13.6105362 14.6904637,12.130174 16.4873187,12.130174 C18.2841737,12.130174 19.7460594,13.6105362 19.7460594,15.4301533 C19.7460594,17.2497704 18.2841737,18.7301749 16.4873187,18.7301749 Z" id="Shape" fill-rule="nonzero"></path>
                <path d="M5.03602251,7 L5.03602251,6.50893239 C5.26364916,6.44414052 5.46224203,6.32793401 5.62786116,6.16240704 C5.87476548,5.91862552 6,5.61834345 6,5.26985212 L5.99976548,5.26015044 C5.98062852,4.85302163 5.81866792,4.56727071 5.47617261,4.3347722 C5.26932458,4.19202496 5.14169794,4.13163518 4.91880863,4.03013078 L4.61510319,3.88661424 C4.56655722,3.86233866 4.49981238,3.82049748 4.42270169,3.77211727 L4.41838649,3.76942474 C4.3065666,3.68928968 4.28752345,3.63146423 4.28752345,3.53380631 C4.28752345,3.42413882 4.37453096,3.30575263 4.51515009,3.30575263 C4.6586773,3.30575263 4.77223265,3.32528421 4.92772045,3.57752799 L5.05745779,3.78805881 L5.87035647,3.308146 L5.76890244,3.12629285 C5.59376173,2.81216343 5.3477955,2.60176083 5.03602251,2.49854688 L5.03602251,2 L4.08499062,2 L4.08499062,2.49598256 C3.60877111,2.66112488 3.29113508,3.07923754 3.29113508,3.56996324 C3.29113508,3.90529105 3.41491557,4.16860415 3.67242026,4.37721173 C3.88939962,4.54743995 4.05961538,4.64244807 4.39690432,4.78216087 C4.90694184,5.0034191 5.00361163,5.12791692 5.00361163,5.28023763 C5.00361163,5.39866655 4.97242026,5.491495 4.90825516,5.56385161 C4.85281426,5.62257458 4.76294559,5.68911873 4.56055347,5.68911873 C4.30164165,5.68911873 4.10905253,5.58616121 3.94915572,5.07359603 L3.86003752,4.78788785 L3,5.2622019 L3.03545966,5.41896743 C3.15492495,5.94704676 3.55675422,6.3584067 4.08503752,6.5119241 L4.08503752,7 L5.03602251,7 Z" id="Path"></path>
                <path d="M16.5339983,13.826395 C16.8301087,13.826395 17.0538469,13.9595499 17.2181605,14.2334364 L17.2917137,14.3560438 L18,13.9589041 L17.9304535,13.8272561 C17.6402897,13.2783207 17.1704607,13 16.5340405,13 C15.6045043,13 14.9566125,13.5744212 14.7411406,14.5815417 L14.4047953,14.5815417 L14,15.4078937 L14.6698649,15.4078937 L14.6698649,15.5921063 L14.4047953,15.5921063 L14,16.4184583 L14.7410984,16.4184583 C14.9565282,17.4256219 15.6044621,18 16.5339983,18 C17.1704607,18 17.6402476,17.7216793 17.9304113,17.1727439 L17.9999578,17.0410959 L17.2916715,16.6439562 L17.2181184,16.7665636 C17.0538047,17.0404501 16.8300665,17.173605 16.5339561,17.173605 C16.0380207,17.173605 15.7344453,16.9325228 15.5894478,16.4184152 L16.7601826,16.4184152 L17.1649779,15.5920632 L15.5050979,15.5920632 L15.5050979,15.4078507 L16.7602248,15.4078507 L17.1650201,14.5814987 L15.5895322,14.5814987 C15.7344875,14.0674341 16.0380629,13.826395 16.5339983,13.826395 Z" id="Path"></path>
            </g>
        </g>
    </g>
</svg>