<?xml version="1.0" encoding="UTF-8"?>
<svg width="8px" height="22px" viewBox="0 0 8 22" version="1.1" xmlns="http://www.w3.org/2000/svg" xmlns:xlink="http://www.w3.org/1999/xlink">
    <!-- Generator: Sketch 52.4 (67378) - http://www.bohemiancoding.com/sketch -->
    <title>temperature</title>
    <desc>Created with Sketch.</desc>
    <g id="Page-1" stroke="none" stroke-width="1" fill="none" fill-rule="evenodd">
        <g id="A4" transform="translate(-359.000000, -57.000000)" fill="#FFFFFF">
            <g id="temperature" transform="translate(359.000000, 57.000000)">
                <path d="M2.5,0 C1.71107701,0 1.07142857,0.679350754 1.07142857,1.51724138 L1.07142857,17.0689655 C0.396902902,17.6062601 0,18.4493366 0,19.3448276 C0,20.8113214 1.11921036,22 2.5,22 C3.88078964,22 5,20.8113214 5,19.3448276 C5,18.4493366 4.6030971,17.6062601 3.92857143,17.0689655 L3.92857143,1.51724138 C3.92857143,0.679350754 3.28892299,0 2.5,0 Z M2.59998785,21.2068966 C1.70594184,21.1950431 0.990587824,20.4995791 1.00015711,19.6516871 C0.903563785,18.8504285 1.49190199,18.1431515 2.20003017,17.9985024 L2.20003017,3.37931034 C2.20003017,3.16983768 2.37911277,3 2.59998785,3 C2.82086294,3 2.99994554,3.16983768 2.99994554,3.37931034 L2.99994554,17.9985024 C3.70865961,18.1431515 4.26888308,18.7338443 4.1998186,19.6516871 C4.20938788,20.4995791 3.49403387,21.1950431 2.59998785,21.2068966 Z" id="Shape" fill-rule="nonzero"></path>
                <path d="M5.375,15.7 L7.625,15.7 C7.8320923,15.7 8,15.5432861 8,15.35 C8,15.1567139 7.8320923,15 7.625,15 L5.375,15 C5.1679077,15 5,15.1567139 5,15.35 C5,15.5432861 5.1679077,15.7 5.375,15.7 Z" id="Path"></path>
                <path d="M5.33333333,14.7 L6.66666667,14.7 C6.85074871,14.7 7,14.5432861 7,14.35 C7,14.1567139 6.85074871,14 6.66666667,14 L5.33333333,14 C5.14925129,14 5,14.1567139 5,14.35 C5,14.5432861 5.14925129,14.7 5.33333333,14.7 Z" id="Path"></path>
                <path d="M5.375,12.7 L7.625,12.7 C7.8320923,12.7 8,12.5432861 8,12.35 C8,12.1567139 7.8320923,12 7.625,12 L5.375,12 C5.1679077,12 5,12.1567139 5,12.35 C5,12.5432861 5.1679077,12.7 5.375,12.7 Z" id="Path"></path>
                <path d="M5.33333333,11.7 L6.66666667,11.7 C6.85074871,11.7 7,11.5432861 7,11.35 C7,11.1567139 6.85074871,11 6.66666667,11 L5.33333333,11 C5.14925129,11 5,11.1567139 5,11.35 C5,11.5432861 5.14925129,11.7 5.33333333,11.7 Z" id="Path"></path>
                <path d="M5.375,9.7 L7.625,9.7 C7.8320923,9.7 8,9.54328614 8,9.35 C8,9.15671386 7.8320923,9 7.625,9 L5.375,9 C5.1679077,9 5,9.15671386 5,9.35 C5,9.54328614 5.1679077,9.7 5.375,9.7 Z" id="Path"></path>
                <path d="M5.33333333,8.7 L6.66666667,8.7 C6.85074871,8.7 7,8.54328614 7,8.35 C7,8.15671386 6.85074871,8 6.66666667,8 L5.33333333,8 C5.14925129,8 5,8.15671386 5,8.35 C5,8.54328614 5.14925129,8.7 5.33333333,8.7 Z" id="Path"></path>
                <path d="M5.375,6.7 L7.625,6.7 C7.8320923,6.7 8,6.54328614 8,6.35 C8,6.15671386 7.8320923,6 7.625,6 L5.375,6 C5.1679077,6 5,6.15671386 5,6.35 C5,6.54328614 5.1679077,6.7 5.375,6.7 Z" id="Path"></path>
                <path d="M5.33333333,5.7 L6.66666667,5.7 C6.85074871,5.7 7,5.54328614 7,5.35 C7,5.15671386 6.85074871,5 6.66666667,5 L5.33333333,5 C5.14925129,5 5,5.15671386 5,5.35 C5,5.54328614 5.14925129,5.7 5.33333333,5.7 Z" id="Path"></path>
                <path d="M5.375,3.7 L7.625,3.7 C7.8320923,3.7 8,3.54328614 8,3.35 C8,3.15671386 7.8320923,3 7.625,3 L5.375,3 C5.1679077,3 5,3.15671386 5,3.35 C5,3.54328614 5.1679077,3.7 5.375,3.7 Z" id="Path"></path>
            </g>
        </g>
    </g>
</svg>