<?xml version="1.0" encoding="UTF-8"?>
<svg width="20px" height="20px" viewBox="0 0 20 20" version="1.1" xmlns="http://www.w3.org/2000/svg" xmlns:xlink="http://www.w3.org/1999/xlink">
    <!-- Generator: Sketch 52.4 (67378) - http://www.bohemiancoding.com/sketch -->
    <title>ruler</title>
    <desc>Created with Sketch.</desc>
    <g id="Page-1" stroke="none" stroke-width="1" fill="none" fill-rule="evenodd">
        <g id="A4" transform="translate(-235.000000, -83.000000)" fill="#FFFFFF">
            <g id="ruler" transform="translate(235.000000, 83.000000)">
                <path d="M19.9024219,4.09797604 L15.9022325,0.0977631468 C15.7718811,-0.0325877156 15.5612173,-0.0325877156 15.430866,0.0977631468 L0.097763528,15.4308058 C-0.0325878427,15.5611567 -0.0325878427,15.7718196 0.097763528,15.9021704 L4.09795295,19.9023443 C4.16029661,19.9650002 4.24529649,20 4.33361667,20 C4.42193685,20 4.50662423,19.9650002 4.56928039,19.9023443 L19.9023438,4.56934069 C19.9649999,4.50699728 19.9999999,4.42199773 19.9999999,4.3336779 C20.000078,4.24531899 19.965078,4.16063195 19.9024219,4.09797604 Z M4.33365573,19.1953168 L0.8048328,15.6665077 L15.6665297,0.804829662 L19.1953526,4.33363883 L4.33365573,19.1953168 Z" id="Shape" fill-rule="nonzero"></path>
                <path d="M16,3 C15.4486543,3 15,3.44865435 15,4 C15,4.55134565 15.4486543,5 16,5 C16.5513457,5 17,4.55134565 17,4 C17,3.44869341 16.5513457,3 16,3 Z M16,4.33334635 C15.8159838,4.33334635 15.6666536,4.1836647 15.6666536,4 C15.6666536,3.8163353 15.8159838,3.66665365 16,3.66665365 C16.1840162,3.66665365 16.3333464,3.8163353 16.3333464,4 C16.3333464,4.18370376 16.1840162,4.33334635 16,4.33334635 Z" id="Shape" fill-rule="nonzero"></path>
                <polygon id="Rectangle" transform="translate(13.129545, 3.857477) rotate(-45.000000) translate(-13.129545, -3.857477) " points="12.798516 3.15405816 13.461948 3.15341091 13.4605748 4.56089584 12.7971428 4.56154309"></polygon>
                <polygon id="Rectangle" transform="translate(12.300850, 5.019724) rotate(-45.000000) translate(-12.300850, -5.019724) " points="11.9700494 4.08176956 12.6334813 4.08112231 12.6316506 5.95767818 11.9682186 5.95832543"></polygon>
                <polygon id="Rectangle" transform="translate(11.141143, 5.849521) rotate(-45.000000) translate(-11.141143, -5.849521) " points="10.8101139 5.14610196 11.4735459 5.14545471 11.4721727 6.55293964 10.8087407 6.55358689"></polygon>
                <polygon id="Rectangle" transform="translate(10.312410, 7.011454) rotate(-45.000000) translate(-10.312410, -7.011454) " points="9.98160954 6.07349987 10.6450415 6.07285262 10.6432107 7.94940849 9.97977876 7.95005574"></polygon>
                <polygon id="Rectangle" transform="translate(9.152698, 7.841569) rotate(-45.000000) translate(-9.152698, -7.841569) " points="8.82166877 7.13814994 9.48510075 7.13750269 9.4837276 8.54498761 8.82029561 8.54563487"></polygon>
                <polygon id="Rectangle" transform="translate(8.324000, 9.003471) rotate(-45.000000) translate(-8.324000, -9.003471) " points="7.99319967 8.06551644 8.65663165 8.06486919 8.65480087 9.94142506 7.99136888 9.94207231"></polygon>
                <polygon id="Rectangle" transform="translate(7.164071, 9.833096) rotate(-45.008103) translate(-7.164071, -9.833096) " points="6.83304099 9.12983285 7.49647316 9.1291856 7.49510031 10.5363592 6.83166814 10.5370064"></polygon>
                <polygon id="Rectangle" transform="translate(6.335560, 10.996177) rotate(-45.000000) translate(-6.335560, -10.996177) " points="6.00475926 10.0582228 6.66819124 10.0575756 6.66636045 11.9341314 6.00292847 11.9347787"></polygon>
                <polygon id="Rectangle" transform="translate(5.175828, 11.826202) rotate(-45.000000) translate(-5.175828, -11.826202) " points="4.84479879 11.1227831 5.50823077 11.1221359 5.50685762 12.5296208 4.84342563 12.530268"></polygon>
                <polygon id="Rectangle" transform="translate(4.347148, 12.988480) rotate(-45.000000) translate(-4.347148, -12.988480) " points="4.01634771 12.0505256 4.67977969 12.0498784 4.6779489 13.9264342 4.01451692 13.9270815"></polygon>
                <polygon id="Rectangle" transform="translate(3.188120, 13.818923) rotate(-45.000000) translate(-3.188120, -13.818923) " points="2.8570901 13.1155039 3.52052208 13.1148567 3.51914893 14.5223416 2.85571694 14.5229889"></polygon>
                <polygon id="Rectangle" transform="translate(2.358659, 14.980904) rotate(-45.000000) translate(-2.358659, -14.980904) " points="2.02785821 14.0429494 2.69129019 14.0423021 2.68945941 15.918858 2.02602742 15.9195052"></polygon>
            </g>
        </g>
    </g>
</svg>