<?xml version="1.0" encoding="UTF-8"?>
<svg width="21px" height="18px" viewBox="0 0 21 18" version="1.1" xmlns="http://www.w3.org/2000/svg" xmlns:xlink="http://www.w3.org/1999/xlink">
    <!-- Generator: Sketch 52.4 (67378) - http://www.bohemiancoding.com/sketch -->
    <title>balance (1)</title>
    <desc>Created with Sketch.</desc>
    <g id="Page-1" stroke="none" stroke-width="1" fill="none" fill-rule="evenodd">
        <g id="A4" transform="translate(-268.000000, -49.000000)" fill="#FFFFFF" fill-rule="nonzero">
            <g id="balance-(1)" transform="translate(268.000000, 49.000000)">
                <path d="M20.6881908,10.8326936 L18.2928076,5.68954664 L19.3268244,5.98687227 C19.5539138,6.05220018 19.790862,5.92070689 19.855864,5.69289683 C19.9210332,5.46525427 19.7898594,5.22789631 19.5627701,5.1625684 L12.3731113,3.09435461 C12.3746152,3.06353325 12.3754507,3.03271189 12.3754507,3.00172304 C12.3756178,2.14592778 11.7992887,1.39800728 10.9731447,1.18242525 C10.1470007,0.966675732 9.27991707,1.33770462 8.86367014,2.08478755 L1.67334295,0.0167412959 C1.44625359,-0.0485866088 1.2093053,0.0830742235 1.1441362,0.310716781 C1.07913414,0.538359296 1.21030793,0.775717304 1.43739724,0.841045165 L2.85641329,1.24926071 L0.286577302,6.76695419 C0.115132342,6.82708936 0.000167325388,6.98923651 2.25057733e-07,7.17148456 C-0.000501078071,8.56363851 0.836504499,9.8186039 2.12000212,10.3501048 C3.40349975,10.8817733 4.88016536,10.5849502 5.86004169,9.59849916 C6.51290269,8.96046351 6.88169313,8.08557239 6.88336411,7.17148456 C6.88336411,6.97952111 6.75586659,6.81100865 6.57155492,6.75891384 L4.18318987,1.63101003 L8.62705607,2.90909146 C8.62555218,2.93991282 8.62471668,2.97073418 8.62471668,3.00189053 C8.62605349,3.87443657 9.22510816,4.63173749 10.0723068,4.83174129 L10.0723068,13.3258737 L8.8915759,13.3258737 C7.94812742,13.3258737 7.16342427,14.0848497 7.16342427,15.0307639 L7.16342427,15.2796799 C6.36953063,15.4471873 5.79955139,16.1470332 5.79453836,16.9604491 L5.79453836,17.5607956 C5.80172369,17.8028438 5.99773236,17.9964823 6.23935946,18 L14.7608079,18 C15.002435,17.9964823 15.1984436,17.8028438 15.205629,17.5607956 L15.205629,16.9604491 C15.200616,16.1470332 14.6306367,15.4471873 13.836743,15.2796799 L13.836743,15.0307639 C13.836743,14.0848497 13.0518728,13.3258737 12.1085915,13.3258737 L10.9278605,13.3258737 L10.9278605,4.83174129 C11.4405243,4.71029844 11.8788285,4.3789688 12.1364972,3.91849099 L16.9783964,5.31131497 L14.4032132,10.840734 C14.2316011,10.9008692 14.1166361,11.0630163 14.116469,11.2450969 C14.1161348,12.6372508 14.9531404,13.8922162 16.236638,14.4237171 C17.5201356,14.9553856 18.9966342,14.65873 19.9765105,13.672279 C20.6293715,13.0340758 20.998329,12.1591847 21,11.2450969 C20.9998329,11.0531334 20.8725025,10.8847884 20.6881908,10.8326936 Z M3.49990458,2 L6,7 L1,7 L3.49990458,2 Z M13,14.7903125 L13,15 L8,15 L8,14.7903125 C8,14.3492187 8.40409483,14 8.87924302,14 L12.120757,14 C12.5959052,14 13,14.3492187 13,14.7903125 Z M10.7505271,3.49999978 C10.4308738,3.50024538 10.1462191,3.2978557 10.0414692,2.9958677 C9.93671917,2.69387972 10.0348379,2.35873323 10.2858448,2.16088749 C10.5369746,1.96304175 10.8858547,1.94609408 11.1549136,2.1187639 C11.4239724,2.29131092 11.5540196,2.61540459 11.4789877,2.92611203 C11.4710056,2.94600715 11.4651111,2.96651631 11.4613042,2.9875167 C11.3590103,3.29331177 11.072882,3.49963134 10.7505271,3.49999978 Z M20,11 L15,11 L17.4999046,6 L20,11 Z" id="Shape"></path>
            </g>
        </g>
    </g>
</svg>