<?xml version="1.0" encoding="UTF-8"?>
<svg width="20px" height="22px" viewBox="0 0 20 22" version="1.1" xmlns="http://www.w3.org/2000/svg" xmlns:xlink="http://www.w3.org/1999/xlink">
    <!-- Generator: Sketch 52.4 (67378) - http://www.bohemiancoding.com/sketch -->
    <title>volume</title>
    <desc>Created with Sketch.</desc>
    <g id="Page-1" stroke="none" stroke-width="1" fill="none" fill-rule="evenodd">
        <g id="A4" transform="translate(-172.000000, -85.000000)" fill="#FFFFFF">
            <g id="volume" transform="translate(173.000000, 86.000000)">
                <path d="M7.50342636,17 L7.49657364,17 C7.22231602,17 7,17.22385 7,17.5 C7,17.77615 7.22231602,18 7.49657364,18 L7.50342636,18 C7.77768398,18 8,17.77615 8,17.5 C8,17.22385 7.77768398,17 7.50342636,17 Z" id="Path"></path>
                <path d="M7.50342636,12 L7.49657364,12 C7.22231602,12 7,12.22385 7,12.5 C7,12.77615 7.22231602,13 7.49657364,13 L7.50342636,13 C7.77768398,13 8,12.77615 8,12.5 C8,12.22385 7.77768398,12 7.50342636,12 Z" id="Path"></path>
                <path d="M7.50342636,7 L7.49657364,7 C7.22231602,7 7,7.22385 7,7.5 C7,7.77615 7.22231602,8 7.49657364,8 L7.50342636,8 C7.77768398,8 8,7.77615 8,7.5 C8,7.22385 7.77768398,7 7.50342636,7 Z" id="Path"></path>
                <path d="M17.5975852,0 L0.402439374,0 C0.220749075,0 0.0615940063,0.118164062 0.0140688139,0.288398437 C-0.0334966199,0.45859375 0.042358577,0.638632812 0.199139398,0.727734375 L0.781634876,1.05875 C1.9956802,1.74863281 2.74988609,3.02550781 2.74988609,4.39105469 L2.74988609,18.8382031 C2.74988609,19.4788281 3.28678797,20 3.9467483,20 L16.8031378,20 C17.4630981,20 18,19.4788281 18,18.8382031 L18,0.390625 C18,0.174882812 17.8198389,0 17.5975852,0 Z M17.1951703,13.4016797 L8.06361306,13.4016797 C7.84135935,13.4016797 7.66119822,13.5765625 7.66119822,13.7923047 C7.66119822,14.0080469 7.84135935,14.1829297 8.06361306,14.1829297 L17.1951703,14.1829297 L17.1951703,18.8381641 C17.1951703,19.0480078 17.019315,19.2187109 16.8031378,19.2187109 L3.94670806,19.2187109 C3.73053081,19.2187109 3.55467552,19.0479687 3.55467552,18.8381641 L3.55467552,17.890625 L5.45717215,17.890625 C5.67942587,17.890625 5.85958699,17.7157422 5.85958699,17.5 C5.85958699,17.2842578 5.67942587,17.109375 5.45717215,17.109375 L3.55467552,17.109375 L3.55467552,15.4156641 L6.82296812,15.4156641 C7.04522183,15.4156641 7.22538295,15.2407812 7.22538295,15.0250391 C7.22538295,14.8092969 7.04522183,14.6344141 6.82296812,14.6344141 L3.55467552,14.6344141 L3.55467552,12.8912891 L5.47966714,12.8912891 C5.70192086,12.8912891 5.88208198,12.7164062 5.88208198,12.5006641 C5.88208198,12.2849219 5.70192086,12.1100391 5.47966714,12.1100391 L3.55467552,12.1100391 L3.55467552,10.4163281 L6.8454631,10.4163281 C7.06771682,10.4163281 7.24787794,10.2414453 7.24787794,10.0257031 C7.24787794,9.80996094 7.06771682,9.63507812 6.8454631,9.63507812 L3.55467552,9.63507812 L3.55467552,7.890625 L5.47966714,7.890625 C5.70192086,7.890625 5.88208198,7.71574219 5.88208198,7.5 C5.88208198,7.28425781 5.70192086,7.109375 5.47966714,7.109375 L3.55467552,7.109375 L3.55467552,5.41566406 L6.8454631,5.41566406 C7.06771682,5.41566406 7.24787794,5.24078125 7.24787794,5.02503906 C7.24787794,4.80929687 7.06771682,4.63441406 6.8454631,4.63441406 L3.55467552,4.63441406 L3.55467552,4.39105469 C3.55467552,2.98359375 2.88839728,1.65457031 1.77861764,0.78125 L17.1951703,0.78125 L17.1951703,13.4016797 Z" id="Shape" stroke="#FFFFFF" stroke-width="0.3" fill-rule="nonzero"></path>
            </g>
        </g>
    </g>
</svg>